<?xml version="1.0" encoding="UTF-8"?>
<svg id="Layer_1" data-name="Layer 1" xmlns="http://www.w3.org/2000/svg" viewBox="0 0 2443.97 748">
  <defs>
    <style>
      .cls-1 {
        fill: #36454f;
      }
    </style>
  </defs>
  <path class="cls-1" d="M0,742V42h295c74.66,0,140.5,14.67,197.5,44,57,29.34,101.33,70.34,133,123,31.66,52.67,47.5,113.67,47.5,183s-15.84,130.34-47.5,183c-31.67,52.67-76,93.67-133,123-57,29.34-122.84,44-197.5,44H0ZM100,655h189c58,0,108.16-11,150.5-33,42.33-22,75.16-52.83,98.5-92.5,23.33-39.66,35-85.5,35-137.5s-11.67-98.66-35-138c-23.34-39.33-56.17-70-98.5-92-42.34-22-92.5-33-150.5-33H100v526Z"/>
  <path class="cls-1" d="M976.99,748c-39.34,0-73.84-6.66-103.5-20-29.67-13.33-52.5-31.83-68.5-55.5-16-23.66-24-50.5-24-80.5s6.83-54.66,20.5-78c13.66-23.33,36-42,67-56s72.83-21,125.5-21h168v69h-164c-48,0-80.34,8-97,24-16.67,16-25,35.34-25,58,0,26,10.33,46.84,31,62.5,20.66,15.67,49.33,23.5,86,23.5s67.5-8,94.5-24,46.5-39.33,58.5-70l19,66c-12.67,31.34-35,56.17-67,74.5-32,18.34-72.34,27.5-121,27.5ZM1150.99,742v-112l-5-21v-191c0-40.66-11.84-72.16-35.5-94.5-23.67-22.33-59.17-33.5-106.5-33.5-31.34,0-62,5.17-92,15.5-30,10.34-55.34,24.17-76,41.5l-40-72c27.33-22,60.16-38.83,98.5-50.5,38.33-11.66,78.5-17.5,120.5-17.5,72.66,0,128.66,17.67,168,53,39.33,35.34,59,89.34,59,162v320h-91Z"/>
  <path class="cls-1" d="M1581.98,748c-44,0-85.84-6-125.5-18-39.67-12-70.84-26.66-93.5-44l40-76c22.66,15.34,50.66,28.34,84,39,33.33,10.67,67.33,16,102,16,44.66,0,76.83-6.33,96.5-19,19.66-12.66,29.5-30.33,29.5-53,0-16.66-6-29.66-18-39-12-9.33-27.84-16.33-47.5-21-19.67-4.66-41.5-8.83-65.5-12.5-24-3.66-48-8.33-72-14-24-5.66-46-13.66-66-24-20-10.33-36-24.66-48-43-12-18.33-18-42.83-18-73.5s9-60,27-84,43.5-42.5,76.5-55.5,72.16-19.5,117.5-19.5c34.66,0,69.83,4.17,105.5,12.5,35.66,8.34,64.83,20.17,87.5,35.5l-41,76c-24-16-49-27-75-33s-52-9-78-9c-42,0-73.34,6.84-94,20.5-20.67,13.67-31,31.17-31,52.5,0,18,6.16,31.84,18.5,41.5,12.33,9.67,28.33,17.17,48,22.5,19.66,5.34,41.5,9.84,65.5,13.5,24,3.67,48,8.34,72,14,24,5.67,45.83,13.5,65.5,23.5,19.66,10,35.66,24,48,42,12.33,18,18.5,42,18.5,72,0,32-9.34,59.67-28,83-18.67,23.34-45,41.5-79,54.5s-74.67,19.5-122,19.5Z"/>
  <path class="cls-1" d="M1940.97,742V0h96v355l-19-38c17.33-34.66,44-61.66,80-81,36-19.33,78-29,126-29,43.33,0,81.5,8.34,114.5,25,33,16.67,58.83,42,77.5,76,18.66,34,28,77,28,129v305h-96v-294c0-51.33-12.5-90-37.5-116s-60.17-39-105.5-39c-34,0-63.67,6.67-89,20-25.34,13.34-44.84,33-58.5,59-13.67,26-20.5,58.34-20.5,97v273h-96Z"/>
</svg>