<?xml version="1.0" encoding="UTF-8"?>
<svg id="Layer_1" data-name="Layer 1" xmlns="http://www.w3.org/2000/svg" xmlns:xlink="http://www.w3.org/1999/xlink" viewBox="0 0 3192.98 1000">
  <defs>
    <style>
      .cls-1 {
        fill: #e2eaf2;
      }

      .cls-2 {
        fill: url(#linear-gradient);
      }
    </style>
    <linearGradient id="linear-gradient" x1="67.24" y1="249.4" x2="933.41" y2="749.48" gradientUnits="userSpaceOnUse">
      <stop offset="0" stop-color="#d8e7f7"/>
      <stop offset=".06" stop-color="#cee3f5"/>
      <stop offset=".16" stop-color="#b5d8f0"/>
      <stop offset=".29" stop-color="#8bc7e9"/>
      <stop offset=".44" stop-color="#52afdf"/>
      <stop offset=".57" stop-color="#1f9ad7"/>
      <stop offset=".87" stop-color="#006cba"/>
      <stop offset=".99" stop-color="#00599b"/>
    </linearGradient>
  </defs>
  <path class="cls-2" d="M220,914.3C87.25,824.4,0,672.39,0,500S87.8,174.64,221.26,84.86M500,0c-40.96,0-80.77,4.93-118.88,14.22v971.56c38.1,9.29,77.91,14.22,118.88,14.22,276.14,0,500-223.86,500-500S776.14,0,500,0Z"/>
  <g>
    <path class="cls-1" d="M1200,875.08V175.07h295c74.66,0,140.5,14.67,197.5,44,57,29.34,101.33,70.34,133,123,31.66,52.67,47.5,113.67,47.5,183s-15.84,130.34-47.5,183c-31.67,52.67-76,93.67-133,123-57,29.34-122.84,44-197.5,44h-295ZM1300,788.08h189c58,0,108.16-11,150.5-33,42.33-22,75.16-52.83,98.5-92.5,23.33-39.66,35-85.5,35-137.5s-11.67-98.66-35-138c-23.34-39.33-56.17-70-98.5-92-42.34-22-92.5-33-150.5-33h-189v526Z"/>
    <path class="cls-1" d="M2248.99,881.08c-52.67,0-99.84-11.66-141.5-35-41.67-23.33-74.5-55.5-98.5-96.5s-36-87.5-36-139.5,12-99.16,36-139.5c24-40.33,56.66-72.16,98-95.5,41.33-23.33,88.66-35,142-35s99.83,11.5,141.5,34.5c41.66,23,74.33,54.84,98,95.5,23.66,40.67,35.5,87.34,35.5,140s-11.84,99.34-35.5,140c-23.67,40.67-56.34,72.67-98,96-41.67,23.34-88.84,35-141.5,35ZM2248.99,797.08c34,0,64.5-7.66,91.5-23,27-15.33,48.16-37.16,63.5-65.5,15.33-28.33,23-61.16,23-98.5s-7.67-70.83-23-98.5c-15.34-27.66-36.5-49.16-63.5-64.5-27-15.33-57.5-23-91.5-23s-64.34,7.67-91,23c-26.67,15.34-48,36.84-64,64.5-16,27.67-24,60.5-24,98.5s8,70.17,24,98.5c16,28.34,37.33,50.17,64,65.5,26.66,15.34,57,23,91,23Z"/>
    <path class="cls-1" d="M2666.98,875.08V345.07h92v144l-9-36c14.66-36.66,39.33-64.66,74-84,34.66-19.33,77.33-29,128-29v93c-4-.66-7.84-1-11.5-1h-10.5c-51.34,0-92,15.34-122,46-30,30.67-45,75-45,133v264h-96Z"/>
    <path class="cls-1" d="M3127.98,243.07c-18.67,0-34.17-6-46.5-18-12.34-12-18.5-26.66-18.5-44s6.16-33,18.5-45c12.33-12,27.83-18,46.5-18s34.16,5.84,46.5,17.5c12.33,11.67,18.5,26.17,18.5,43.5s-6,33.17-18,45.5c-12,12.34-27.67,18.5-47,18.5ZM3079.98,875.08V345.07h96v530h-96Z"/>
  </g>
</svg>