<?xml version="1.0" encoding="UTF-8"?>
<svg id="Layer_1" data-name="Layer 1" xmlns="http://www.w3.org/2000/svg" viewBox="1100 230 1375.94 540">
  <defs>
    <style>
      .cls-1 { fill: #36454f; }
    </style>
  </defs>
  <g>
    <path class="cls-1" d="M1200,743.65v-455h191.75c48.53,0,91.33,9.54,128.38,28.6,37.05,19.07,65.86,45.72,86.45,79.95,20.58,34.24,30.88,73.89,30.88,118.95s-10.3,84.72-30.88,118.95c-20.59,34.24-49.4,60.89-86.45,79.95-37.05,19.07-79.85,28.6-128.38,28.6h-191.75ZM1265,687.1h122.85c37.7,0,70.3-7.15,97.83-21.45,27.51-14.3,48.85-34.34,64.03-60.12,15.16-25.78,22.75-55.58,22.75-89.38s-7.59-64.13-22.75-89.7c-15.17-25.56-36.51-45.5-64.03-59.8-27.52-14.3-60.12-21.45-97.83-21.45h-122.85v341.9Z"/>
    <path class="cls-1" d="M1875.34,747.55c-34.24,0-64.9-7.58-91.98-22.75-27.09-15.16-48.42-36.08-64.02-62.73-15.6-26.65-23.4-56.88-23.4-90.67s7.8-64.45,23.4-90.67c15.6-26.21,36.83-46.9,63.7-62.08,26.86-15.16,57.63-22.75,92.3-22.75s64.89,7.48,91.97,22.42c27.08,14.95,48.31,35.65,63.7,62.08,15.38,26.44,23.08,56.77,23.08,91s-7.7,64.57-23.08,91c-15.39,26.44-36.62,47.24-63.7,62.4-27.09,15.17-57.75,22.75-91.97,22.75ZM1875.34,692.95c22.1,0,41.92-4.98,59.47-14.95,17.55-9.96,31.3-24.15,41.28-42.58,9.96-18.41,14.95-39.75,14.95-64.03s-4.99-46.04-14.95-64.02c-9.97-17.98-23.73-31.95-41.28-41.93-17.55-9.96-37.38-14.95-59.47-14.95s-41.82,4.99-59.15,14.95c-17.34,9.97-31.2,23.95-41.6,41.93-10.4,17.99-15.6,39.32-15.6,64.02s5.2,45.61,15.6,64.03c10.4,18.42,24.26,32.61,41.6,42.58,17.33,9.97,37.05,14.95,59.15,14.95Z"/>
    <path class="cls-1" d="M2140.54,743.65v-344.5h59.8v93.6l-5.85-23.4c9.53-23.83,25.56-42.03,48.1-54.6,22.53-12.56,50.26-18.85,83.2-18.85v60.45c-2.6-.43-5.1-.65-7.48-.65h-6.83c-33.37,0-59.8,9.97-79.3,29.9-19.5,19.94-29.25,48.75-29.25,86.45v171.6h-62.4Z"/>
    <path class="cls-1" d="M2433.69,332.85c-12.14,0-22.21-3.9-30.22-11.7-8.02-7.8-12.03-17.33-12.03-28.6s4-21.45,12.03-29.25c8.01-7.8,18.09-11.7,30.22-11.7s22.2,3.8,30.23,11.38c8.01,7.59,12.02,17.01,12.02,28.27s-3.9,21.56-11.7,29.57c-7.8,8.02-17.99,12.03-30.55,12.03ZM2402.49,743.65v-344.5h62.4v344.5h-62.4Z"/>
  </g>
</svg>
